<?xml version="1.0" standalone="no"?><!DOCTYPE svg PUBLIC "-//W3C//DTD SVG 1.1//EN" "http://www.w3.org/Graphics/SVG/1.1/DTD/svg11.dtd"><svg t="1645426664102" class="icon" viewBox="0 0 1024 1024" version="1.1" xmlns="http://www.w3.org/2000/svg" p-id="2046" xmlns:xlink="http://www.w3.org/1999/xlink" width="200" height="200"><defs><style type="text/css"></style></defs><path d="M695.466667 413.866667c46.933333 0 85.333333-38.4 85.333333-85.333334s-38.4-85.333333-85.333333-85.333333-85.333333 38.4-85.333334 85.333333 38.4 85.333333 85.333334 85.333334" fill="#2F3CF4" p-id="2047"></path><path d="M452.266667 994.133333L29.866667 571.733333c-17.066667-17.066667-17.066667-42.666667 0-59.733333L497.066667 44.8c8.533333-8.533333 23.466667-14.933333 36.266666-12.8L902.4 85.333333c19.2 2.133333 34.133333 17.066667 36.266667 36.266667L992 490.666667c2.133333 12.8-2.133333 27.733333-12.8 36.266666L512 994.133333c-8.533333 8.533333-19.2 12.8-29.866667 12.8-10.666667 0-21.333333-4.266667-29.866666-12.8z m89.6-874.666666L119.466667 541.866667l362.666666 362.666666 422.4-422.4-46.933333-315.733333-315.733333-46.933333z" fill="#2F3CF4" p-id="2048"></path></svg>