<?xml version="1.0" standalone="no"?><!DOCTYPE svg PUBLIC "-//W3C//DTD SVG 1.1//EN" "http://www.w3.org/Graphics/SVG/1.1/DTD/svg11.dtd"><svg t="1645512641423" class="icon" viewBox="0 0 1024 1024" version="1.1" xmlns="http://www.w3.org/2000/svg" p-id="2045" xmlns:xlink="http://www.w3.org/1999/xlink" width="200" height="200"><defs><style type="text/css"></style></defs><path d="M796.992 497.696l-333.376 333.44h-0.128L191.904 559.68l333.44-333.44c8.128-0.832 28.256-2.24 75.936-2.24 82.24 0 191.68 4 193.824 5.12 4.16 111.296 5.824 236.896 1.92 268.576m62.08-269.76c0-35.2-28.64-63.84-62.656-63.84h-0.064c-1.088-0.032-111.68-4.096-195.104-4.096-96.16 0-104.8 4.64-115.2 15.04L146.656 514.464c-24.96 24.96-24.896 65.6 0.16 90.656l271.232 271.232c12.16 12.128 28.256 18.784 45.44 18.784 17.152 0 33.184-6.624 45.184-18.624l339.424-339.424c11.2-11.2 21.76-21.76 10.976-309.152M609.376 440.288c-26.464 0-48-21.536-48-48s21.536-48 48-48 48 21.536 48 48-21.536 48-48 48m0-160c-61.76 0-112 50.24-112 112s50.24 112 112 112 112-50.24 112-112-50.24-112-112-112" p-id="2046"></path></svg>