<?xml version="1.0" standalone="no"?><!DOCTYPE svg PUBLIC "-//W3C//DTD SVG 1.1//EN" "http://www.w3.org/Graphics/SVG/1.1/DTD/svg11.dtd"><svg t="1645426677989" class="icon" viewBox="0 0 1024 1024" version="1.1" xmlns="http://www.w3.org/2000/svg" p-id="2943" xmlns:xlink="http://www.w3.org/1999/xlink" width="200" height="200"><defs><style type="text/css"></style></defs><path d="M348.027854 342.7457m-286.301845 0a286.301845 286.301845 0 1 0 572.60369 0 286.301845 286.301845 0 1 0-572.60369 0Z" fill="#3C92CA" p-id="2944"></path><path d="M1024.000919 788.591388c0-0.626481 0-1.252962-0.208827-1.879443 0-0.626481-0.208827-1.252962-0.417654-1.879443s-0.208827-1.252962-0.417654-1.670616c-0.208827-0.626481-0.417654-1.044135-0.835308-1.670616-0.208827-0.626481-0.417654-1.044135-0.835308-1.670617-0.208827-0.626481-0.626481-1.044135-1.044136-1.461789s-0.626481-1.044135-1.044135-1.461789-0.835308-0.835308-1.461789-1.252962l-1.252962-1.252962c-0.417654-0.417654-1.044135-0.626481-1.670616-1.044135-0.417654-0.208827-0.835308-0.626481-1.461789-0.835308l-230.336204-113.601899c-0.626481-0.417654-1.252962-0.626481-2.08827-0.835308-3.967713-1.461789-98.984008-34.665285-176.667659 0.208827l-171.446984 62.021625c-0.417654 0.208827-1.044135 0.417654-1.461789 0.626481-24.641588 11.276659-37.588864 36.544729-32.368188 63.06576 5.220676 26.312205 26.521032 44.897809 53.25089 46.150771h0.417654c1.670616 0 9.188389-0.417654 87.289695-5.429502 34.038804-2.08827 69.121744-4.385367 72.254149-4.594195 9.81487-0.417654 17.959124-8.353081 18.167951-18.376777 0.208827-10.441351-7.935427-19.212086-18.585605-19.420913-1.044135 0-1.044135 0-74.133592 4.594194-36.544729 2.297097-77.474825 5.011848-84.366117 5.429503-13.156102-1.044135-16.288508-12.111967-17.123815-15.4532-1.461789-7.100119 0.626481-16.497335 10.441351-21.300356l171.238156-62.021625c0.417654-0.208827 0.835308-0.417654 1.46179-0.626481 60.142182-27.35634 138.661141-2.714751 148.058357 0.208827l102.534067 50.536139-56.383296 133.022812c-27.773994-17.123816-61.603971-21.71801-92.928024-12.320794l-230.127376 69.121743c-27.35634 8.353081-57.636258 5.220676-82.904327-8.561907l-360.435437-195.253264c-12.947275-7.100119-8.770735-19.420913-7.7266-21.926838 1.252962-3.341232 6.682465-13.782583 19.838567-10.232524l280.037034 93.345679c9.81487 3.341232 20.673875-2.08827 24.015108-11.903141 3.341232-10.023697-2.08827-20.673875-11.90314-24.015107l-280.663516-93.763332c-0.417654-0.208827-0.626481-0.208827-1.044135-0.208827-27.773994-7.517773-54.712679 5.847157-65.362857 32.577015-10.859005 26.938686-0.626481 55.33916 24.850415 69.330571l360.644264 195.879745c34.038804 18.585605 74.760073 22.762145 111.722456 11.485486l230.127376-69.121744c21.091529-6.264811 43.853674-3.341232 62.43928 8.561908l117.360785 73.924765c0.626481 0.417654 1.044135 0.626481 1.670616 0.835308 0.208827 0 0.208827 0.208827 0.417654 0.208827h0.208827c0.208827 0.208827 0.417654 0.208827 0.835308 0.208827 0.417654 0.208827 1.044135 0.417654 1.461789 0.626481 0.208827 0 0.626481 0.208827 0.835308 0.208827 0.417654 0.208827 1.044135 0.208827 1.46179 0.417654 0.208827 0 0.626481 0 0.835308 0.208828 0.835308 0 1.461789 0.208827 2.297097 0.208827 0.835308 0 1.670616 0 2.505924-0.208827 0.208827 0 0.626481 0 0.835308-0.208828 0.626481 0 1.044135-0.208827 1.670616-0.417654 0.208827 0 0.626481-0.208827 0.835308-0.208827 0.417654-0.208827 1.044135-0.417654 1.46179-0.626481 0.208827-0.208827 0.626481-0.208827 0.835308-0.417654 0.417654-0.208827 0.835308-0.417654 1.461789-0.835308 0.208827-0.208827 0.626481-0.417654 0.835308-0.417654 0.417654-0.208827 0.835308-0.626481 1.252962-0.835308 0.208827-0.208827 0.626481-0.417654 0.835308-0.626481l1.044135-1.044135 0.835308-0.835308c0.417654-0.417654 0.626481-0.835308 0.835308-1.252962 0.208827-0.208827 0.417654-0.626481 0.626481-0.835308 0 0 0-0.208827 0.208827-0.208827 0-0.208827 0.208827-0.417654 0.208827-0.417654 0.208827-0.417654 0.626481-1.044135 0.835309-1.670617l83.530808-177.920621c0.208827-0.626481 0.417654-1.044135 0.626481-1.670616 0.208827-0.626481 0.417654-1.252962 0.626481-1.670616 0.208827-0.626481 0.208827-1.252962 0.208827-1.879443s0.208827-1.252962 0.208827-1.879443c0.208827-0.626481 0.208827-1.252962 0.208827-1.879444z m-43.853674 9.606043l-66.61582 141.793547-67.451127-42.600712 57.845084-136.572871 76.221863 37.380036zM321.297996 361.748959h53.042063c21.71801 0 39.25948 17.54147 39.25948 39.25948s-17.54147 39.25948-39.25948 39.25948h-95.433948c-10.441351 0-19.003259 8.561908-19.003259 19.003258s8.561908 19.003259 19.003259 19.003259h49.909657v37.380037c0 10.441351 8.561908 19.003259 19.003259 19.003259s19.003259-8.561908 19.003259-19.003259v-37.380037h7.7266c42.600712 0 77.265997-34.665285 77.265997-77.265997s-34.665285-77.265997-77.265997-77.265998h-53.042063c-21.71801 0-39.25948-17.54147-39.25948-39.25948s17.54147-39.25948 39.25948-39.259479h93.763332c10.441351 0 19.003259-8.561908 19.003259-19.003259s-8.561908-19.003259-19.003259-19.003259h-48.239042v-36.544729c0-10.441351-8.561908-19.003259-19.003259-19.003258s-19.003259 8.561908-19.003259 19.003258v36.753556h-7.726599c-42.600712 0-77.265997 34.665285-77.265998 77.265997 0.208827 42.391885 34.874112 77.05717 77.265998 77.057171z" fill="" p-id="2945"></path><path d="M348.027854 647.841977c168.314578 0 305.096277-136.990525 305.096277-305.096277s-136.990525-305.305104-305.096277-305.305104-305.305104 136.990525-305.305103 305.305104 136.990525 305.096277 305.305103 305.096277z m0-572.394863c147.431876 0 267.298586 119.86671 267.298586 267.298586s-119.86671 267.298586-267.298586 267.298586-267.298586-119.86671-267.298586-267.298586 119.86671-267.298586 267.298586-267.298586z" fill="" p-id="2946"></path></svg>